<svg xmlns="http://www.w3.org/2000/svg" viewBox="0 0 467.36 726.43"><defs><style>.cls-1{fill:#fff;stroke:#fff;stroke-width:19px;}.cls-1,.cls-6,.cls-8{stroke-linecap:round;stroke-miterlimit:10;}.cls-2{fill:#ffb173;}.cls-3{fill:#f98b5a;}.cls-4{fill:#f4895a;}.cls-5{fill:#f78b5c;}.cls-5,.cls-8{opacity:0.35;}.cls-6,.cls-8{fill:none;}.cls-6{stroke:#000;stroke-width:26.49px;}.cls-7{fill:#f17849;}.cls-8{stroke:#f98b5a;stroke-width:6.31px;}.cls-9{fill:#333;opacity:0.7;}.cls-10{fill:#ffae79;}</style></defs><g id="Layer_2" data-name="Layer 2"><g id="Sketch"><path id="Outline" class="cls-1" d="M432.77,153.53l22.73,12.63c-7.58-58.08-45.45-58.08-45.45-58.08l40.4-13.89C388.59,5.82,322.94,52.53,322.94,52.53l18.93-41.66C247.19-.49,214.36,62.63,214.36,62.63V22.23c-70.7,15.15-82.06,66.91-82.06,66.91l-3.79-50.5c-40.4,45.45-40.4,80.8-40.4,80.8S3.52,108.08,9.84,229.28l22.72-31.56s-15.15,55.55-8.84,75.75c15.25,48.8,23.58,73,23.58,73l.41-.31v34a36.61,36.61,0,0,0,36.61,36.61h0A36.65,36.65,0,0,0,97,414.52a167.59,167.59,0,0,0,3.64,32.84v.75s.22.73.62,2.11q1.52,6.57,3.54,12.91c5.83,22.35,16,66.48,18.68,110.81L314.1,714.08,381,651v-.08l0-.13h0a1.44,1.44,0,0,1-.05-.24v0c0-.08,0-.18-.06-.28l0-.1c0-.13-.06-.27-.09-.43h0q-.11-.51-.24-1.2l0-.11q-.06-.3-.12-.63l0-.14c0-.23-.09-.47-.13-.72l0-.12c-.17-.89-.36-1.91-.57-3.07l0-.21c-.05-.32-.11-.64-.17-1l-.05-.28c-.05-.32-.11-.65-.17-1l-.06-.3c-.06-.39-.13-.79-.2-1.2l0-.14c-.08-.48-.16-1-.25-1.49a615.79,615.79,0,0,1-7.8-95.46c1.33-1.08,2.64-2.17,3.93-3.29,1-.88,2-1.77,3-2.67a168.73,168.73,0,0,0,28.56-33.79c2.91-4.54,5.61-9.24,8.09-14.06a167.21,167.21,0,0,0,18.11-67.17h0c.08-1.49.14-3,.18-4.5,0-.05,0-.09,0-.14,0-1.54.06-3.08.06-4.64h0V250.21l2.53-38.6L442.88,228C461.81,180,432.77,153.53,432.77,153.53Z"/><path class="cls-2" d="M102.12,452.66s17.66,58,21.44,121.08L314,713.75l66.85-63.07S369.52,599,370.78,528.34L179.06,488l-53-78.21L98.34,419.86Z"/><path class="cls-3" d="M370.7,528.32l0,3.4c0-1.12,0-2.25,0-3.38Z"/><path class="cls-3" d="M100.74,448s19,62.66,22.82,125.72L314,713.75l66.85-63.07s-1-4.58-2.38-12.88L314,698.61,133.66,566.18c-3.79-63.07-32.92-119.42-32.92-119.42"/><path d="M450.24,94.45l-40.36,13.87s37.84,0,45.41,58l-22.7-12.61s29,26.49,10.09,74.42l-7.57-16.4-2.52,38.57s-69.1-27.78-151.36-22.17S47.47,346.51,47.47,346.51s-8.31-24.2-23.55-73c-6.3-20.18,8.83-75.68,8.83-75.68l-22.7,31.54c-6.31-121.09,78.2-109.74,78.2-109.74s0-35.31,40.36-80.72l3.78,50.45s11.36-51.71,82-66.85V62.91S247.17-.15,341.77,11.2L322.85,52.82S388.44,6.16,450.24,94.45Z"/><path class="cls-2" d="M97.08,175.17H357.44a75.15,75.15,0,0,1,75.15,75.15v162A167.75,167.75,0,0,1,264.83,580.05h0A167.75,167.75,0,0,1,97.08,412.3V175.17a0,0,0,0,1,0,0Z"/><rect class="cls-4" x="290.37" y="412.97" width="61.8" height="28.75" rx="14.37"/><circle class="cls-5" cx="201.77" cy="376.98" r="44.59"/><path class="cls-5" d="M388,377a44.6,44.6,0,0,0,44.34,44.59c.16-3.07.26-6.16.26-9.27V332.39A44.59,44.59,0,0,0,388,377Z"/><path class="cls-6" d="M272.4,301.3s-30.27-12.61-70.63,6.31"/><path class="cls-6" d="M418.19,308.52s-27.06-18.52-70.43-8.21"/><circle cx="245.91" cy="358.06" r="26.49"/><circle cx="383.39" cy="355.54" r="26.49"/><path d="M338,489.41V472.62l-32.79,1.26V489.6a21.29,21.29,0,0,1-21.44,21.26c-34.3-.17-101.92-11.37-143.84-89.73C127.6,398,137.31,308.6,137.31,308.6l-40.23-5.54V412.3A167.75,167.75,0,0,0,264.83,580.05h0A167.76,167.76,0,0,0,432.59,412.3V397.79l-40.09,73L383.39,496,369.5,510.79s-4.47,0-10.61-.12A21.28,21.28,0,0,1,338,489.41Z"/><polygon points="130.5 394.79 232.5 466.79 255.38 509.79 245.5 541.14 136.5 482.79 130.5 394.79"/><path class="cls-3" d="M264.83,600.05h0c39.44,0,77.62-13.62,106.33-36.4-.26-6.8-.43-13.89-.47-21.23a167,167,0,0,1-105.86,37.63h0A167.81,167.81,0,0,1,105.6,465.19c2.58,9.86,6.22,24.94,9.6,43A167.73,167.73,0,0,0,264.83,600.05Z"/><path class="cls-7" d="M270.32,461.4a60.65,60.65,0,0,0,101.9,0Z"/><path d="M137.31,308.6s2.3-54.06,48.06-74.15c51.71-22.7,58-42.88,142.53-40.36,91.2,2.72,94.6,24.16,104.69,56.23l3.62-73.89s-97-65.91-163.81-60.07-187.94,17.19-190.46,50S95.5,308.79,95.5,308.79Z"/><path class="cls-8" d="M322.68,612.4s-44.18,25.39-99.18,5.39"/><path class="cls-9" d="M174.33,164.05a10.43,10.43,0,0,1,1.14-14.23C186.06,140,212.3,122,257.69,128.5c61.38,8.83-1.69,7.43-39.53,20.74C187.42,160.06,180.45,171.4,174.33,164.05Z"/><path class="cls-9" d="M155,125a17.1,17.1,0,0,1,.58-13.72c5.4-9.48,18.78-26.86,41.92-20.57,31.29,8.52-.86,7.17-20.15,20C161.68,121.18,158.12,132.12,155,125Z"/><path class="cls-9" d="M295.4,99.29A17.07,17.07,0,0,1,306,90.54c10.66-2.33,32.53-4,43.33,17.38,14.62,29-5.89,4.16-28.35-1.58C302.72,101.68,292.21,106.36,295.4,99.29Z"/><rect class="cls-10" x="47.89" y="306.98" width="73.16" height="109.73" rx="36.58"/><rect class="cls-3" x="70.17" y="332.83" width="38.68" height="58.02" rx="19.34"/><path d="M379.34,513.41,371,473.31a14.93,14.93,0,0,0-14.63-11.91H284.46a15,15,0,0,0-14.68,12.13L262,513.9a3.25,3.25,0,0,1-6.44-.72L257.24,464a23.58,23.58,0,0,1,23.58-22.8h81.5a23.59,23.59,0,0,1,23.59,23.06L387,512.54A3.86,3.86,0,0,1,379.34,513.41Z"/><path d="M269.5,474.79s-8,36,8,36l-2,14-17-8Z"/><path d="M371.5,474.79s8,36-8,36l2,14,17-8Z"/><path class="cls-4" d="M343.71,194.8c7.56,14.57-.37,39.65-.37,39.65,11.57-17.36,15.71-29.21,16.23-37.29,29.21,18.49,40,67.59,40,67.59,10.2-23.57,12.34-41.18,10-54.34C397.55,202.33,378,196.92,343.71,194.8Z"/><path d="M346.67,190.46c12.42,13.15,2.67,44,2.67,44,11.57-17.36,15.71-29.21,16.23-37.29,29.21,18.49,40,67.59,40,67.59,38.89-89.92-39.32-93.13-39.32-93.13l-18.68,10Z"/></g></g></svg>