<?xml version="1.0" encoding="UTF-8"?>
<svg id="Capa_1" xmlns="http://www.w3.org/2000/svg" version="1.1" viewBox="0 0 300 300">
  <!-- Generator: Adobe Illustrator 29.1.0, SVG Export Plug-In . SVG Version: 2.1.0 Build 142)  -->
  <defs>
    <style>
      .st0 {
        fill: #2944ae;
      }

      .st1 {
        fill: #213993;
      }

      .st2 {
        fill: #3351c5;
      }

      .st3 {
        fill: #feb237;
      }

      .st4 {
        fill: #fff0ad;
      }

      .st5 {
        fill: #fe9901;
      }

      .st6 {
        fill: #ffd15b;
      }

      .st7 {
        fill: #5169cd;
      }
    </style>
  </defs>
  <g>
    <g>
      <g>
        <path class="st6" d="M271.3,17.6h-40.8c-5.7,0-10.6,4.7-10.5,10.4.1,5.6,4.6,10,10.2,10h53.9v-7.6c0-7.1-5.8-12.8-12.8-12.8Z"/>
        <path class="st3" d="M288.8,17.6h-20.5c5.6,0,10.2,4.6,10.2,10.2v42.9h0c0,24.5-19.9,44.5-44.5,44.5h-3.9c-5.6,0-10.2,4.6-10.2,10.2s4.6,10.2,10.2,10.2h3.9c35.8,0,64.9-29.1,64.9-64.9V27.8c0-5.6-4.6-10.2-10.2-10.2h0Z"/>
      </g>
      <g>
        <path class="st6" d="M43.8,109.3l10.9,13.2-11,9.3C18.8,122.7,1,98.7,1,70.7V27.8c0-5.6,4.6-10.2,10.2-10.2h32.6l11,13-11,7.4h-22.4v32.7c0,16.5,9,30.9,22.4,38.6h0Z"/>
        <g>
          <path class="st3" d="M43.8,38h26c5.6,0,10.2-4.6,10.2-10.2s-4.6-10.2-10.2-10.2h-26v20.5Z"/>
          <path class="st3" d="M69.8,115.1h-3.9c-8,0-15.6-2.2-22.1-5.9v22.5c6.9,2.5,14.3,3.9,22.1,3.9h3.9c5.6,0,10.2-4.6,10.2-10.2s-4.6-10.2-10.2-10.2h0Z"/>
        </g>
      </g>
    </g>
    <g>
      <g>
        <path class="st6" d="M203.1,150c-27,29-54.5,43.6-55.5,123.6h-12.4v-32.8c0-30.9-15-59.7-39.7-78.3-18.8-14.1-30.9-36.5-30.9-61.7V13c0-3.3,2.7-6,6-6l39.7,16.3,7.3-16.3h81.3l21.2,28.1s10.6,85.4-16.9,114.9Z"/>
        <path class="st3" d="M229.4,7h-41.7l-8.7,16.4h-2.3c-2.2,0-4.3,1.3-5.3,3.3l-18.8,36.6-18.8-36.6c-1-2-3.1-3.3-5.3-3.3h-7.5l-8.7-16.4h-41.7l42.9,80.8c-9.8,9.6-15.8,23.1-15.5,37.9.4,28.1,23.4,51,51.5,51.3,4.3,0,8.5-.4,12.5-1.4,1.7-.4,2.9,1.6,1.8,2.9-14.5,17.3-22.9,39.2-22.9,62.3v32.8h24v-32.8c0-30.9,15-59.7,39.7-78.3,18.8-14.1,30.9-36.5,30.9-61.7V13c0-3.3-2.7-6-6-6h0ZM205.2,131.2c-.8,1.9-3.7,1.2-3.5-.9.2-1.8.3-3.6.3-5.4,0-14.5-6-27.7-15.5-37.1l21.6-40.5c.9-1.7,3.4-1,3.4.8v52.7c0,10.8-2.2,21.1-6.2,30.4h0Z"/>
      </g>
      <g>
        <path class="st3" d="M181.8,250.1h-85.2c-4.7,0-8.6,3.8-8.6,8.6v14.9l104.7,8.6v-21.1c0-6-4.9-10.9-10.9-10.9Z"/>
        <path class="st5" d="M212,258.7v14.9l-24,5.6v-20.5c0-4.7-3.8-8.6-8.6-8.6h24c4.7,0,8.6,3.8,8.6,8.6Z"/>
        <path class="st6" d="M203,273.6h-125.9c-6.4,0-11.8,4.9-12,11.3-.2,6.7,5.1,12.2,11.7,12.2h126.2c6.1,0,11-4.9,11-11v-1.4c0-6.1-4.9-11-11-11Z"/>
        <path class="st3" d="M234.9,285.3c0,3.2-1.3,6.2-3.4,8.3-2.1,2.1-5.1,3.4-8.3,3.4h-24c3.2,0,6.2-1.3,8.3-3.4,2.1-2.1,3.4-5.1,3.4-8.3,0-6.5-5.2-11.7-11.7-11.7h24c6.5,0,11.7,5.2,11.7,11.7Z"/>
      </g>
    </g>
  </g>
  <g>
    <g>
      <path class="st0" d="M191.6,11.7c0-4.8-3.9-8.7-8.7-8.7h-6.1c-2.2,0-4.3,1.3-5.3,3.3l-38.5,74.8h24.6l34-58.5v-10.8Z"/>
      <path class="st1" d="M210.2,11.7l-35.6,69.3h-24L186.2,11.7c2.1-4-.8-8.7-5.3-8.7h24c4.5,0,7.4,4.8,5.3,8.7Z"/>
    </g>
    <g>
      <path class="st7" d="M130.7,81h41.6L116.3,6.2c-1-2-3.5-3.3-10.7-3.3h-5.2c-4.5,0-7.4,4.7-5.3,8.7l35.6,69.3Z"/>
      <path class="st2" d="M110.9,6.2l38.5,74.8h22.9L133.8,6.2c-1-2-3.1-3.3-5.3-3.3h-22.9c2.2,0,4.3,1.3,5.3,3.3Z"/>
    </g>
  </g>
  <g>
    <g>
      <path class="st4" d="M138,155.1c-23-5.4-40.1-26-40.1-50.7s17.1-45.3,40.1-50.7c1.3,0,43.3-.6,50.5,48.3,7.3,49.6-50.5,53-50.5,53Z"/>
      <path class="st6" d="M202.1,104.5c0,28.7-23.3,52.1-52.1,52.1s-8.1-.5-12-1.4c23-5.4,40.1-26,40.1-50.7s-17.1-45.2-40.1-50.7c3.9-.9,7.9-1.4,12-1.4,28.7,0,52.1,23.3,52.1,52.1h0Z"/>
    </g>
    <g>
      <path class="st6" d="M170,103.7c0,30.5-31.3,34.7-32,34.8-14-4.9-24-18.3-24-34s10-29,24-34c.9,0,32,2.7,32,33.2h0Z"/>
      <path class="st3" d="M186,104.5c0,19.9-16.1,36-36,36s-8.2-.7-12-2c14-4.9,24-18.3,24-34s-10-29-24-34c3.7-1.3,7.8-2,12-2,19.9,0,36,16.1,36,36Z"/>
    </g>
  </g>
  <path class="st5" d="M130,114.4c-1.1,0-2.2-.4-3-1.2-1.8-1.7-2-4.5-.3-6.4,2.9-3.2,7.9-7.5,15.2-9.8,2-.6,4.3-.2,6,1.1,1.5,1.1,2.4,2.8,2.6,4.7,3.3-2.6,6.9-4.5,10.9-5.7,2-.6,4.3-.2,6,1,1.7,1.3,2.7,3.3,2.7,5.5l-.2,6.4c0,2.5-2.1,4.4-4.6,4.4-2.5,0-4.4-2.1-4.4-4.6v-2.9c-2.6,1.2-5,3-7.2,5.2-2.1,2.1-5.2,2.7-7.9,1.5-2.7-1.1-4.4-3.8-4.4-6.7-3.7,1.7-6.4,4.1-8.1,6-.9,1-2.1,1.5-3.3,1.5h0ZM147.3,105.8h0s0,0,0,0Z"/>
</svg>