<?xml version="1.0" encoding="UTF-8"?>
<svg id="Layer_1" xmlns="http://www.w3.org/2000/svg" version="1.1" xmlns:xlink="http://www.w3.org/1999/xlink" viewBox="0 0 300 300">
  <!-- Generator: Adobe Illustrator 29.1.0, SVG Export Plug-In . SVG Version: 2.1.0 Build 142)  -->
  <defs>
    <style>
      .st0 {
        fill: url(#linear-gradient2);
      }

      .st1 {
        fill: url(#linear-gradient1);
      }

      .st2 {
        fill: url(#linear-gradient9);
      }

      .st3 {
        opacity: .4;
      }

      .st4 {
        fill: url(#linear-gradient8);
      }

      .st5 {
        fill: #f53700;
      }

      .st5, .st6, .st7, .st8, .st9, .st10, .st11, .st12 {
        isolation: isolate;
      }

      .st5, .st6, .st9 {
        opacity: .2;
      }

      .st6, .st12 {
        fill: #ffdd45;
      }

      .st7 {
        fill: url(#linear-gradient5);
      }

      .st7, .st8, .st13, .st11, .st12 {
        opacity: .3;
      }

      .st8 {
        fill: #ffeea2;
      }

      .st14 {
        fill: url(#linear-gradient7);
      }

      .st9 {
        fill: #ba0000;
      }

      .st15 {
        fill: url(#linear-gradient4);
      }

      .st16 {
        fill: #ffd069;
      }

      .st17 {
        fill: #ffe98b;
      }

      .st10 {
        fill: #c20000;
        opacity: .1;
      }

      .st11 {
        fill: url(#linear-gradient3);
      }

      .st18 {
        fill: url(#linear-gradient6);
      }

      .st19 {
        fill: url(#linear-gradient);
      }
    </style>
    <linearGradient id="linear-gradient" x1="273.5" y1="108.4" x2="-95.5" y2="238.6" gradientTransform="translate(0 302) scale(1 -1)" gradientUnits="userSpaceOnUse">
      <stop offset="0" stop-color="#ffc64f"/>
      <stop offset=".3" stop-color="#e06919"/>
      <stop offset=".7" stop-color="#ffc640"/>
      <stop offset="1" stop-color="#ffa02b"/>
    </linearGradient>
    <linearGradient id="linear-gradient1" x1="53.9" y1="72.4" x2="303.2" y2="278.9" gradientTransform="translate(0 302) scale(1 -1)" gradientUnits="userSpaceOnUse">
      <stop offset="0" stop-color="#ffc64f"/>
      <stop offset=".3" stop-color="#e06919"/>
      <stop offset=".7" stop-color="#ffc640"/>
      <stop offset="1" stop-color="#ffa02b"/>
    </linearGradient>
    <linearGradient id="linear-gradient2" x1="212.8" y1="222.8" x2="-42.8" y2="-65.3" gradientTransform="translate(0 302) scale(1 -1)" gradientUnits="userSpaceOnUse">
      <stop offset="0" stop-color="#e06919"/>
      <stop offset="1" stop-color="#ffa02b"/>
    </linearGradient>
    <linearGradient id="linear-gradient3" x1="216.6" y1="227.3" x2="56.5" y2="46.8" gradientTransform="translate(0 302) scale(1 -1)" gradientUnits="userSpaceOnUse">
      <stop offset="0" stop-color="#941010"/>
      <stop offset="1" stop-color="#ffa02b"/>
    </linearGradient>
    <linearGradient id="linear-gradient4" x1="68.8" y1="45.5" x2="235.8" y2="264.5" gradientTransform="translate(0 302) scale(1 -1)" gradientUnits="userSpaceOnUse">
      <stop offset="0" stop-color="#ffc64f"/>
      <stop offset=".3" stop-color="#e06919"/>
      <stop offset=".7" stop-color="#ffc640"/>
      <stop offset="1" stop-color="#ffa02b"/>
    </linearGradient>
    <linearGradient id="linear-gradient5" x1="115" y1="106.1" x2="229.3" y2="256" gradientTransform="translate(0 302) scale(1 -1)" gradientUnits="userSpaceOnUse">
      <stop offset="0" stop-color="#ffc64f"/>
      <stop offset=".3" stop-color="#e06919"/>
      <stop offset=".7" stop-color="#ffc640"/>
      <stop offset="1" stop-color="#ffa02b"/>
    </linearGradient>
    <linearGradient id="linear-gradient6" x1="202.2" y1="195.8" x2="108.2" y2="98.5" gradientTransform="translate(0 302) scale(1 -1)" gradientUnits="userSpaceOnUse">
      <stop offset="0" stop-color="#ffc64f"/>
      <stop offset=".3" stop-color="#e06919"/>
      <stop offset=".7" stop-color="#ffc640"/>
      <stop offset="1" stop-color="#ffa02b"/>
    </linearGradient>
    <linearGradient id="linear-gradient7" x1="149.3" y1="140.9" x2="104" y2="94.1" gradientTransform="translate(0 302) scale(1 -1)" gradientUnits="userSpaceOnUse">
      <stop offset="0" stop-color="#ffc64f"/>
      <stop offset=".3" stop-color="#e06919"/>
      <stop offset=".7" stop-color="#ffc640"/>
      <stop offset="1" stop-color="#ffa02b"/>
    </linearGradient>
    <linearGradient id="linear-gradient8" x1="225.7" y1="164.2" x2="199.6" y2="137.2" gradientTransform="translate(0 302) scale(1 -1)" gradientUnits="userSpaceOnUse">
      <stop offset="0" stop-color="#ffc64f"/>
      <stop offset=".3" stop-color="#e06919"/>
      <stop offset=".7" stop-color="#ffc640"/>
      <stop offset="1" stop-color="#ffa02b"/>
    </linearGradient>
    <linearGradient id="linear-gradient9" x1="105" y1="87.5" x2="191.2" y2="200.4" gradientTransform="translate(0 302) scale(1 -1)" gradientUnits="userSpaceOnUse">
      <stop offset="0" stop-color="#ffc64f"/>
      <stop offset=".3" stop-color="#e06919"/>
      <stop offset=".7" stop-color="#ffc640"/>
      <stop offset="1" stop-color="#ffa02b"/>
    </linearGradient>
  </defs>
  <path class="st19" d="M224.5,19.9H75.5c-.4,0-.8.2-1,.5L.1,149.5c-.2.3-.2.8,0,1.1l74.5,129c.2.3.6.5,1,.5h148.9c.4,0,.8-.2,1-.5l74.5-129c.2-.3.2-.8,0-1.1L225.4,20.5c-.2-.3-.6-.5-1-.5h0Z"/>
  <path class="st1" d="M221.8,24.5H78.2c-.4,0-.7.2-.9.5L5.4,149.5c-.2.3-.2.7,0,1.1l71.8,124.4c.2.3.5.5.9.5h143.7c.4,0,.7-.2.9-.5l71.8-124.4c.2-.3.2-.7,0-1.1L222.8,25.1c-.2-.3-.5-.5-.9-.5Z"/>
  <path class="st10" d="M219.1,266.8h-127.6c-5.4,0-10.3-2.9-13-7.5L14.8,148.8c-2.7-4.6-2.7-10.3,0-15L74.6,30.3c-.5.6-1,1.1-1.3,1.7L9.4,142.5c-2.7,4.6-2.7,10.3,0,15l63.8,110.5c2.7,4.6,7.6,7.5,13,7.5h127.6c5.4,0,10.3-2.9,13-7.5l4-7c-2.8,3.6-7,5.8-11.7,5.8Z"/>
  <path class="st8" d="M290.6,142.5l-63.8-110.5c-2.7-4.6-7.6-7.5-13-7.5h-127.6c-5.4,0-10.3,2.9-13,7.5l-1.3,2.2c2.5-1.9,5.6-3.1,8.9-3.1h127.6c5.4,0,10.3,2.9,13,7.5l63.8,110.5c2.7,4.6,2.7,10.3,0,15l-62.5,108.3c1.6-1.2,3.1-2.6,4.1-4.4l63.8-110.5c2.7-4.6,2.7-10.3,0-15h0Z"/>
  <path class="st0" d="M207.9,48.9h-115.8c-.3,0-.6.2-.7.4l-57.9,100.2c-.2.3-.2.6,0,.9l57.9,100.2c.2.3.4.4.7.4h115.8c.3,0,.6-.2.7-.4l57.9-100.2c.2-.3.2-.6,0-.9l-57.9-100.2c-.2-.3-.4-.4-.7-.4h0Z"/>
  <path class="st11" d="M263.3,144l-51.4-89c-2.2-3.7-6.1-6-10.5-6h-102.8c-4.3,0-8.3,2.3-10.5,6l-.4.8c2.2-3.6,6.1-5.8,10.3-5.8h102.8c4.3,0,8.3,2.3,10.5,6l51.4,89c2.2,3.7,2.2,8.3,0,12.1l-51,88.3c0,0,.1-.1.2-.2l51.4-89c2.2-3.7,2.2-8.3,0-12.1h0Z"/>
  <path class="st15" d="M206.3,51.6h-112.7c-.3,0-.6.2-.7.4l-56.3,97.6c-.1.3-.1.6,0,.8l56.3,97.6c.1.3.4.4.7.4h112.7c.3,0,.6-.2.7-.4l56.3-97.6c.1-.3.1-.6,0-.8l-56.3-97.6c-.1-.3-.4-.4-.7-.4h0Z"/>
  <path class="st12" d="M204.9,240.3h-100.1c-4.2,0-8.1-2.2-10.2-5.9l-50-86.6c-2.1-3.6-2.1-8.1,0-11.7l46-79.7c-.3.4-.7.7-.9,1.2l-50,86.6c-2.1,3.6-2.1,8.1,0,11.7l50,86.6c2.1,3.6,6,5.9,10.2,5.9h100c4.2,0,8.1-2.2,10.2-5.9l4-6.9c-2.2,2.9-5.6,4.7-9.3,4.7h0Z"/>
  <path class="st7" d="M260.2,144.1l-50-86.6c-2.1-3.6-6-5.9-10.2-5.9h-100c-4.2,0-8.1,2.2-10.2,5.9l-5.1,8.8c1.8-1,3.8-1.6,5.9-1.6h100.1c4.2,0,8.1,2.2,10.2,5.9l50,86.6c2.1,3.6,2.1,8.1,0,11.7l-44.9,77.8c1.7-1,3.2-2.5,4.3-4.3l50-86.6c2.1-3.6,2.1-8.1,0-11.7h0Z"/>
  <path class="st9" d="M153.1,89.9l23.5,28.7c.8,1,1.9,1.8,3.1,2.3l34.5,13.5c4.5,1.8,6.2,7.2,3.6,11.2l-20,31.2c-.7,1.1-1.1,2.4-1.2,3.7l-2.2,37c-.3,4.8-4.9,8.2-9.5,6.9l-35.8-9.4c-1.3-.3-2.6-.3-3.9,0l-35.8,9.4c-4.7,1.2-9.3-2.1-9.5-6.9l-2.2-37c0-1.3-.5-2.6-1.2-3.7l-20-31.2c-2.6-4.1-.8-9.5,3.6-11.2l34.5-13.5c1.2-.5,2.3-1.3,3.1-2.3l23.5-28.7c3-3.7,8.7-3.7,11.8,0h0Z"/>
  <path class="st9" d="M155,86.6l23.5,28.7c.8,1,1.9,1.8,3.1,2.3l34.5,13.5c4.5,1.8,6.2,7.2,3.6,11.2l-20,31.2c-.7,1.1-1.1,2.4-1.2,3.7l-2.2,37c-.3,4.8-4.9,8.2-9.5,6.9l-35.8-9.4c-1.3-.3-2.6-.3-3.9,0l-35.8,9.4c-4.7,1.2-9.3-2.1-9.5-6.9l-2.2-37c0-1.3-.5-2.6-1.2-3.7l-20-31.2c-2.6-4.1-.8-9.5,3.6-11.2l34.5-13.5c1.2-.5,2.3-1.3,3.1-2.3l23.5-28.7c3-3.7,8.7-3.7,11.8,0h0Z"/>
  <path class="st18" d="M155.5,84l23.5,28.7c.8,1,1.9,1.8,3.1,2.3l34.5,13.5c4.5,1.8,6.2,7.2,3.6,11.2l-20,31.2c-.7,1.1-1.1,2.4-1.2,3.7l-2.2,37c-.3,4.8-4.9,8.2-9.5,6.9l-35.8-9.4c-1.3-.3-2.6-.3-3.9,0l-35.8,9.4c-4.7,1.2-9.3-2.1-9.5-6.9l-2.2-37c0-1.3-.5-2.6-1.2-3.7l-20-31.2c-2.6-4.1-.8-9.5,3.6-11.2l34.5-13.5c1.2-.5,2.3-1.3,3.1-2.3l23.5-28.7c3-3.7,8.7-3.7,11.8,0h0Z"/>
  <g class="st13">
    <path class="st16" d="M199,173.5c-.7,1.1-1.1,2.4-1.2,3.7l-2.2,37c0,.5-.3,1-.4,1.5.9-1.2,1.6-2.5,1.7-4.2l2.2-37c0-.8.5-1.6.8-2.4l-.9,1.4Z"/>
    <path class="st16" d="M216.7,128.4l-34.5-13.5c-1.2-.5-2.3-1.3-3.1-2.3l-23.5-28.7c-3-3.7-8.7-3.7-11.8,0l-23.5,28.7c-.8,1-1.9,1.8-3.1,2.3l-34.5,13.5c-2.4.9-4,3-4.5,5.3.8-1.1,1.8-2.1,3.2-2.6l34.5-13.5c1.2-.5,2.3-1.3,3.1-2.3l23.5-28.7c3.1-3.7,8.7-3.7,11.8,0l23.5,28.7c.8,1,1.9,1.8,3.1,2.3l34.5,13.5c4,1.6,5.6,5.9,4.2,9.8l.8-1.2c2.6-4.1.8-9.5-3.6-11.2h0Z"/>
  </g>
  <g class="st3">
    <path class="st14" d="M188.9,213.9l-35.8-9.4c-1.3-.3-2.6-.3-3.9,0l-35.8,9.4c-4.7,1.2-9.3-2.1-9.5-6.9l-2.2-37c0-1.3-.5-2.6-1.2-3.7l-20-31.2c-.8-1.3-1.1-2.7-1.1-4.1-1.8,2.4-2.2,5.8-.4,8.7l20,31.2c.7,1.1,1.1,2.4,1.2,3.7l2.2,37c.3,4.8,4.9,8.2,9.5,6.9l35.8-9.4c1.3-.3,2.6-.3,3.9,0l35.8,9.4c4.7,1.2,9.3-2.1,9.5-6.9v-.7c-1.7,2.5-4.8,3.9-8,3.1Z"/>
    <path class="st4" d="M201.8,166.3c-.7,1.1-1.1,2.4-1.2,3.7v.4s19.7-30.7,19.7-30.7c.8-1.2,1.1-2.5,1.1-3.9l-19.6,30.5Z"/>
  </g>
  <path class="st5" d="M153,96.4l19.7,24.1c.7.8,1.6,1.5,2.6,1.9l29,11.3c3.8,1.5,5.2,6,3.1,9.4l-16.8,26.2c-.6.9-.9,2-1,3.1l-1.8,31.1c-.2,4-4.1,6.8-8,5.8l-30.1-7.9c-1.1-.3-2.2-.3-3.2,0l-30.1,7.9c-3.9,1-7.8-1.8-8-5.8l-1.8-31.1c0-1.1-.4-2.2-1-3.1l-16.8-26.2c-2.2-3.4-.7-7.9,3.1-9.4l29-11.3c1-.4,1.9-1.1,2.6-1.9l19.7-24.1c2.6-3.1,7.3-3.1,9.9,0h0Z"/>
  <path class="st2" d="M154.6,94.6l19.7,24.1c.7.8,1.6,1.5,2.6,1.9l29,11.3c3.8,1.5,5.2,6,3.1,9.4l-16.8,26.2c-.6.9-.9,2-1,3.1l-1.8,31c-.2,4-4.1,6.8-8,5.8l-30.1-7.9c-1.1-.3-2.2-.3-3.2,0l-30.1,7.9c-3.9,1-7.8-1.8-8-5.8l-1.8-31c0-1.1-.4-2.2-1-3.1l-16.8-26.2c-2.2-3.4-.7-7.9,3.1-9.4l29-11.3c1-.4,1.9-1.1,2.6-1.9l19.7-24.1c2.6-3.1,7.3-3.1,9.9,0h0Z"/>
  <g class="st13">
    <path class="st17" d="M191.1,169.9c-.6.9-.9,2-1,3.1l-1.8,31.1c0,.3-.2.6-.3.9.7-1,1.2-2,1.3-3.3l1.8-31c0-.5.3-1,.5-1.5l-.5.8Z"/>
    <path class="st17" d="M205.9,131.9l-29-11.3c-1-.4-1.9-1.1-2.6-1.9l-19.7-24.1c-2.6-3.1-7.3-3.1-9.9,0l-19.7,24.1c-.7.9-1.6,1.5-2.6,1.9l-29,11.3c-2.1.8-3.4,2.7-3.8,4.8.7-1,1.6-1.9,2.8-2.4l29-11.3c1-.4,1.9-1.1,2.6-1.9l19.7-24.1c2.6-3.1,7.3-3.1,9.9,0l19.7,24.1c.7.9,1.6,1.5,2.6,1.9l29,11.3c3.1,1.2,4.5,4.6,3.7,7.6l.4-.6c2.2-3.4.7-7.9-3.1-9.4h0Z"/>
  </g>
  <path class="st6" d="M295.7,142.2L229.6,27.7c-2.8-4.8-7.9-7.8-13.4-7.8H83.9c-5.5,0-10.7,3-13.4,7.8l-4,6.9,156.5,243.8c2.7-1.3,5.1-3.4,6.6-6.1l66.1-114.5c2.8-4.8,2.8-10.7,0-15.5h0Z"/>
</svg>